<?xml version="1.0" encoding="utf-8"?>
<!-- Generator: Adobe Illustrator 24.2.3, SVG Export Plug-In . SVG Version: 6.00 Build 0)  -->
<svg version="1.1" id="Layer_1" xmlns="http://www.w3.org/2000/svg" xmlns:xlink="http://www.w3.org/1999/xlink" x="0px" y="0px"
	 viewBox="0 0 51 46" style="enable-background:new 0 0 51 46;" xml:space="preserve">
<style type="text/css">
	.st0{fill:#ADADAE;}
	.st1{fill:#F6F6F6;}
</style>
<g>
	<polygon class="st0" points="21.5,35.9 50.2,11.2 48.6,10.8 20.4,35.2 	"/>
	<polygon class="st0" points="2.2,10.9 1.7,11.8 28.7,13.8 29.3,12.9 	"/>
	<polygon class="st0" points="9.1,44.4 8.8,45.8 27.1,40.2 25.8,39.3 	"/>
	<polygon class="st1" points="25.8,39.3 26.3,39.2 21.5,35.9 21.2,36.2 	"/>
	<polygon class="st1" points="49.4,10.2 5.8,0.8 0.9,10.8 2.2,10.9 29.3,12.9 28.7,13.8 16.3,33.5 10.5,29.7 8,44.7 9.1,44.4 
		25.8,39.3 21.2,36.2 21.5,35.9 20.4,35.2 48.6,10.8 	"/>
</g>
</svg>
