<?xml version="1.0" encoding="utf-8"?>
<!-- Generator: Adobe Illustrator 24.2.3, SVG Export Plug-In . SVG Version: 6.00 Build 0)  -->
<svg version="1.1" id="Layer_1" xmlns="http://www.w3.org/2000/svg" xmlns:xlink="http://www.w3.org/1999/xlink" x="0px" y="0px"
	 viewBox="0 0 75 75" style="enable-background:new 0 0 75 75;" xml:space="preserve">
<style type="text/css">
	.st0{fill:#72C7F8;}
</style>
<g>
	<path class="st0" d="M69.04,68c-4.23-4.24-8.46-8.47-12.7-12.7c-0.61-0.61-1.21-1.22-1.83-1.84c0.21-0.23,0.36-0.4,0.52-0.56
		c4.61-4.61,9.22-9.22,13.84-13.82c0.48-0.48,0.73-0.97,0.73-1.68c-0.02-10.24-0.02-20.47-0.01-30.71c0-0.66-0.17-1.17-0.82-1.44
		c-0.65-0.27-1.15,0-1.6,0.45c-3.95,3.95-7.91,7.9-11.86,11.86c-0.88,0.88-1.73,1.8-2.59,2.71c-0.22-0.18-0.32-0.25-0.41-0.33
		c-4.7-4.69-9.4-9.38-14.08-14.09c-0.51-0.51-1.03-0.73-1.74-0.73C26.4,5.15,16.31,5.14,6.22,5.14c-0.16,0-0.33,0-0.49,0
		c-0.61,0.03-1.07,0.27-1.3,0.87C4.21,6.59,4.39,7.07,4.8,7.48c3.42,3.42,6.84,6.84,10.26,10.25c1.44,1.44,2.89,2.86,4.38,4.34
		c-0.16,0.18-0.24,0.3-0.34,0.4c-4.68,4.68-9.36,9.37-14.05,14.04c-0.49,0.48-0.72,1-0.72,1.69c0.01,10.18,0.01,20.35,0,30.53
		c0,0.68,0.11,1.29,0.8,1.59c0.72,0.31,1.26-0.04,1.75-0.54c3.49-3.5,6.98-6.99,10.46-10.49c1.31-1.31,2.59-2.64,3.91-3.98
		c0.22,0.19,0.36,0.3,0.49,0.43c4.62,4.62,9.26,9.23,13.86,13.88c0.59,0.59,1.18,0.83,2.01,0.83c10.03-0.02,20.06-0.01,30.09-0.01
		c0.23,0,0.46,0.03,0.68-0.03c0.29-0.08,0.6-0.17,0.82-0.36C69.82,69.49,69.76,68.72,69.04,68z M9.18,7.88c8.07,0,16.17,0,24.2,0
		c-4.06,4.05-8.12,8.12-12.1,12.09C17.32,16.02,13.26,11.96,9.18,7.88z M35.61,9.87c0,8.19,0,16.36,0,24.45
		c-4.08-4.07-8.18-8.15-12.23-12.2C27.42,18.07,31.5,13.99,35.61,9.87z M21.3,24.18c4.05,4.06,8.14,8.16,12.21,12.24
		c-8.07,0-16.24,0-24.47,0C13.17,32.3,17.25,28.22,21.3,24.18z M7.04,65.65c0-8.16,0-16.25,0-24.25c4.03,4.05,8.08,8.12,12.1,12.15
		C15.24,57.45,11.17,61.52,7.04,65.65z M21.21,51.29c-3.96-3.96-8.06-8.04-12.2-12.18c8.21,0,16.37,0,24.45,0
		C29.38,43.17,25.27,47.26,21.21,51.29z M35.61,65.75c-0.05,0.03-0.09,0.06-0.14,0.08c-1.15-1.17-2.28-2.35-3.44-3.52
		c-2.79-2.8-5.58-5.59-8.38-8.37c-0.34-0.34-0.42-0.57-0.05-0.95c3.91-3.88,7.81-7.78,11.71-11.67c0.07-0.07,0.15-0.12,0.3-0.23
		C35.61,49.37,35.61,57.56,35.61,65.75z M52.62,51.3c-4.02-4.01-8.11-8.09-12.19-12.16c8.09,0,16.24,0,24.37,0
		C60.7,43.24,56.62,47.31,52.62,51.3z M66.92,9.85c0,8.2,0,16.36,0,24.44c-4.06-4.07-8.16-8.17-12.21-12.22
		C58.71,18.07,62.79,13.99,66.92,9.85z M53.27,24.62c3.75,3.75,7.5,7.5,11.25,11.25c0.16,0.16,0.3,0.32,0.53,0.56
		c-8.31,0-16.5,0-24.7,0c-0.03-0.05-0.06-0.1-0.09-0.15c1.1-1.07,2.22-2.13,3.3-3.22c2.81-2.8,5.61-5.61,8.41-8.42
		C52.63,23.98,52.62,23.97,53.27,24.62z M38.34,10.02c4.05,4.06,8.11,8.14,12.13,12.18c-3.93,3.93-8.01,8-12.13,12.13
		C38.34,26.18,38.34,18.06,38.34,10.02z M38.34,65.78c0-8.28,0-16.4,0-24.64c0.22,0.17,0.38,0.25,0.5,0.38
		c3.84,3.84,7.68,7.68,11.53,11.51c0.33,0.33,0.31,0.53-0.01,0.85c-3.84,3.83-7.67,7.67-11.51,11.5
		C38.72,65.5,38.57,65.59,38.34,65.78z M40.42,67.76c4.09-4.07,8.19-8.15,12.25-12.19c4.01,4.01,8.11,8.09,12.21,12.19
		C56.73,67.76,48.56,67.76,40.42,67.76z"/>
	<path class="st0" d="M35.61,9.87c-4.11,4.12-8.19,8.2-12.23,12.25L35.61,9.87z"/>
</g>
</svg>
