<?xml version="1.0" encoding="utf-8"?>
<!-- Generator: Adobe Illustrator 24.2.3, SVG Export Plug-In . SVG Version: 6.00 Build 0)  -->
<svg version="1.1" id="Layer_1" xmlns="http://www.w3.org/2000/svg" xmlns:xlink="http://www.w3.org/1999/xlink" x="0px" y="0px"
	 viewBox="0 0 100 40" style="enable-background:new 0 0 100 40;" xml:space="preserve">
<style type="text/css">
	.st0{fill:#FFFFFF;}
</style>
<g>
	<path class="st0" d="M12.3,10.9c0-2.3-0.7-3.4-2.2-3.4c-0.4,0-0.7,0-0.9,0.1C8.7,7.7,8.3,7.7,8,7.7c-0.4,0-0.7-0.1-1-0.4
		C6.8,7,6.7,6.7,6.7,6.2c0-1.1,0.6-1.6,1.8-1.6c0,0,0.2,0,0.6,0c4.3,0.3,6.3,0.5,6,0.5h0.4L26,4.8c0.2,0,0.9,0,2.2-0.1
		c0.5,0,0.9,0,1.2,0c1.5,0,2.2,0.7,2.2,2.1c0,0.2,0,1-0.1,2.3c-0.1,1-0.1,1.9-0.1,2.7c0,1.1,0,1.8,0.1,2.3c0.1,0.9,0.1,1.5,0.1,2
		c0,1.2-0.5,1.7-1.5,1.7c-1,0-1.5-0.8-1.5-2.4v-2.4c0-2.6-0.5-4.1-1.5-4.6c-0.7-0.3-2.7-0.5-5.8-0.5c-2,0-3.3,0-3.6,0.1
		c-1.2,0.3-1.9,1.3-1.9,2.8v2.1c0,0.2,0,0.6,0,1c0,0.4,0,0.7,0,0.9v0.6c0,1.2,0.3,1.9,0.8,2.1c0.2,0.1,0.5,0.1,1,0.1h1.7
		c1.8,0,2.7-0.7,2.7-2c0-0.4,0-0.8-0.1-1.4c-0.1-0.6-0.1-1.1-0.1-1.6c0-1.2,0.5-1.8,1.5-1.8c1,0,1.5,0.7,1.5,2
		c0,0.2-0.1,1.2-0.3,2.9c-0.2,1.4-0.2,2.7-0.2,3.7c0,0.6,0.1,1.7,0.2,3.3c0,0.2,0.1,0.8,0.2,1.6c0.1,0.7,0.1,1.2,0.1,1.6
		c0,1.1-0.5,1.7-1.6,1.7c-1,0-1.5-0.6-1.5-1.9c0-0.3,0-0.8,0.1-1.5c0.1-0.6,0.1-1.1,0.1-1.5c0-1.3-0.8-2-2.5-2h-1.9
		c-0.8,0-1.3,0.2-1.5,0.5c-0.2,0.3-0.3,1-0.3,2v2.9c0,0.5,0,1.1,0,2c0,1,0,1.7,0,2c0,1.2,0.3,2,0.7,2.3c0.3,0.2,1.1,0.3,2.2,0.3h5.9
		c1.7,0,2.9-0.3,3.5-0.8c0.6-0.5,1-1.5,1-3c0-0.5,0-1.1-0.1-2c0-0.9-0.1-1.6-0.1-2c0-1.4,0.5-2.1,1.5-2.1c1.1,0,1.6,0.7,1.6,2.1
		c0,0.6,0,1.4-0.1,2.5c0,1.1-0.1,2-0.1,2.5c0,0.4,0,1.1,0.1,1.9c0,0.8,0.1,1.5,0.1,1.9c0,1.4-0.7,2.2-2,2.2c-0.3,0-0.8,0-1.5-0.1
		c-0.3,0-1,0-1.9,0c0.2,0-0.9,0-3.4-0.1c-2.4-0.1-4.6-0.1-6.3-0.1c-2.7,0-5.4,0.1-7.9,0.3c-0.1,0-0.2,0-0.4,0c-0.1,0-0.2,0-0.3,0
		c-1.2,0-1.8-0.6-1.8-1.7c0-1,0.4-1.5,1.3-1.5c0.1,0,0.5,0,1.2,0.1c0.3,0.1,0.6,0.1,0.9,0.1c1.5,0,2.2-1.2,2.2-3.5V10.9z"/>
	<path class="st0" d="M57.5,30.3l-1.6-4.5c-0.2-0.5-0.4-0.8-0.5-0.9c-0.2-0.1-0.6-0.2-1.1-0.2h-7.7c-0.6,0-1,0.1-1.2,0.3
		c-0.2,0.2-0.5,0.8-0.8,1.7l-1.3,3.5c-0.1,0.3-0.2,0.7-0.2,1c0,1,0.6,1.5,1.7,1.5c0.3,0,0.7,0,1.2-0.1c0.5-0.1,0.9-0.1,1.2-0.1
		c1.2,0,1.8,0.5,1.8,1.6c0,1-0.6,1.5-1.9,1.5c-0.2,0-0.5,0-0.9-0.1l-2.2-0.3c-0.4-0.1-1.1-0.1-2-0.1c-1,0-1.7,0-2.1,0.1L38,35.5
		c-0.8,0.1-1.4,0.2-1.8,0.2c-1.1,0-1.7-0.5-1.7-1.5c0-1.1,0.5-1.6,1.6-1.6c0.2,0,0.4,0.1,0.5,0.2h0.6c0.8,0,1.4-0.3,1.8-1
		c0.2-0.2,0.5-1,0.9-2.2l8-23.2c0.5-1.3,1.4-1.9,2.7-1.9c1.3,0,2.2,0.6,2.6,1.9L61,29.2c0.5,1.4,0.9,2.4,1.3,2.9s1,0.7,1.7,0.7
		c0.2,0,0.4,0,0.5-0.1l1.2-0.1c1.1,0,1.6,0.5,1.6,1.5c0,1.1-0.5,1.6-1.6,1.6c-0.3,0-0.7,0-1.3-0.1c-1.8-0.2-3.2-0.4-4.1-0.4
		c-1.1,0-2.8,0.1-5.2,0.4c-0.6,0.1-1.1,0.1-1.4,0.1c-1.2,0-1.7-0.5-1.7-1.6c0-1,0.6-1.6,1.9-1.6c0.3,0,0.6,0,1.1,0.1
		c0.5,0.1,0.9,0.1,1.1,0.1c0.9,0,1.4-0.4,1.4-1.2C57.8,31.4,57.7,31,57.5,30.3z M54.4,20.9L50.5,8.2l-4,12.7
		c-0.1,0.2-0.1,0.3-0.1,0.3c0,0.3,0.2,0.4,0.6,0.4h6.9c0.3,0,0.5-0.1,0.5-0.4C54.4,21.2,54.4,21.1,54.4,20.9z"/>
	<path class="st0" d="M81.2,29.4c0,2.3,0.7,3.5,2.2,3.5c0.2,0,0.6,0,1-0.1c0.5-0.1,0.8-0.1,1-0.1c0.4,0,0.7,0.1,1,0.4
		c0.3,0.3,0.4,0.6,0.4,1c0,1.1-0.6,1.6-1.9,1.6c-0.1,0-0.1,0-0.3,0c-0.1,0-0.2,0-0.3,0l-2.1-0.3c-0.8-0.1-1.7-0.2-2.7-0.2
		c-1.1,0-2.1,0.1-2.9,0.2l-2.2,0.3c-0.1,0-0.2,0-0.3,0c-0.1,0-0.2,0-0.3,0c-1.3,0-1.9-0.5-1.9-1.6c0-1,0.5-1.5,1.4-1.5
		c0.2,0,0.6,0,1,0.1c0.5,0.1,0.8,0.1,1,0.1c1.4,0,2.2-1.2,2.2-3.5v-3.2v-4v-3.9v-7.5c0-2.2-1.1-3.3-3.2-3.3h-1.3
		C71,7.5,70,8.5,70,10.7c0,0.8,0,1.3,0,1.6l0.2,1.7c0,0.3,0,0.7,0,1.1c0,1.9-0.6,2.9-1.7,2.9c-1.1,0-1.6-0.7-1.6-2.1
		c0-0.4,0-1.1,0.1-2.1c0.1-1.5,0.1-2.4,0.1-2.8c0-0.8,0-1.6-0.1-2.4C67,7,67,6.3,67,6.5c0-1.3,0.5-1.9,1.6-1.9c0.4,0,1.3,0,2.8,0.1
		c0.1,0,1.3,0.1,3.5,0.2h4.9c0.6,0,2.1,0,4.6-0.1c0.5,0,1.5,0,2.8-0.1c1.2-0.1,2.1-0.1,2.8-0.1c1.4,0,2.2,0.6,2.2,1.9v0.1
		c0,0.3,0,0.9-0.1,1.7C92,9.1,91.9,10,91.8,11v0.5c0,0.5,0,1.2,0.1,2.2c0.1,1.3,0.2,2.1,0.2,2.4c0,1.3-0.6,1.9-1.7,1.9
		c-1.1,0-1.6-0.8-1.6-2.3c0-0.6,0-1.4,0.1-2.5c0.1-1.1,0.1-1.9,0.1-2.5c0-2.1-1.1-3.2-3.4-3.2h-1.2c-1.1,0-1.8,0.2-2.3,0.7
		c-0.5,0.5-0.7,1.3-0.8,2.4l-0.2,3.2V29.4z"/>
</g>
</svg>
