<?xml version="1.0" encoding="utf-8"?>
<!-- Generator: Adobe Illustrator 24.2.3, SVG Export Plug-In . SVG Version: 6.00 Build 0)  -->
<svg version="1.1" id="Layer_1" xmlns="http://www.w3.org/2000/svg" xmlns:xlink="http://www.w3.org/1999/xlink" x="0px" y="0px"
	 viewBox="0 0 140 125" style="enable-background:new 0 0 140 125;" xml:space="preserve">
<style type="text/css">
	.st0{fill:#F9EAEC;}
</style>
<path class="st0" d="M130.25,17.09c-3.65-2.48-7.84-3.37-12.2-3.66c-2.55-0.16-5.11-0.03-7.65,0.39c-3.4,0.57-6.65,1.55-9.77,2.94
	c-4.3,1.92-8.21,4.4-11.81,7.32c-2.8,2.26-5.65,4.47-8.45,6.73c-2.13,1.72-4.22,3.48-6.31,5.25c-2.13,1.8-4.25,3.61-6.35,5.43
	c-2.18,1.9-4.35,3.81-6.51,5.72c-2.02,1.79-4.02,3.59-6.02,5.41c-1.93,1.75-3.86,3.5-5.74,5.29c-2.9,2.75-5.76,5.52-8.64,8.29
	c-2.45,2.36-4.9,4.73-7.35,7.09c-0.12,0.12-0.2,0.27-0.32,0.38c-1.17,1.08-2,2.69-4.11,2.27c-0.22-0.04-0.48,0.11-0.72,0.12
	c-2.4,0.11-4.7,0.64-6.95,1.41c-3.2,1.1-5.98,2.83-8.43,5.01c-1.68,1.49-3.06,3.22-4.24,5.1c-1.87,2.99-3.06,6.2-3.32,9.64
	c-0.29,3.71,0.09,7.37,1.61,10.87c1.49,3.44,3.58,6.44,6.55,8.92c2.17,1.81,4.56,3.23,7.22,4.27c2.4,0.94,4.91,1.51,7.49,1.65
	c2.42,0.14,4.84,0,7.25-0.51c4.49-0.94,8.36-2.93,11.71-5.86c1.8-1.57,3.25-3.43,4.5-5.44c1.89-3.07,2.97-6.37,3.25-9.87
	c0.24-3.05-0.08-6.07-1.11-9c-0.93-2.64-2.25-5.09-4.1-7.27c-0.25-0.29-0.38-0.52,0.02-0.78c1.65-1.1,3.28-2.2,4.92-3.31
	c2.72-1.84,5.44-3.67,8.15-5.51c3.69-2.51,7.36-5.05,11.05-7.55c3.41-2.31,6.85-4.6,10.26-6.91c4.49-3.04,8.97-6.1,13.46-9.16
	c4.7-3.21,9.4-6.42,14.1-9.62c3.74-2.55,7.49-5.11,11.25-7.65c4.69-3.18,9.4-6.34,14.08-9.49
	C135.53,21.76,133.27,19.14,130.25,17.09z M30.22,110.62c-6.78,0-11.96-5.02-11.94-11.25c0.03-6.06,5.07-11.17,12.03-11.04
	c6.61,0.12,11.64,4.97,11.64,11.16C41.96,105.62,36.8,110.59,30.22,110.62z M61.03,69.65c-4.2,0.02-7.36-2.99-7.4-6.93
	c-0.03-3.88,3.21-6.99,7.5-6.95c3.85,0.03,7.21,3.04,7.19,6.88C68.31,66.77,65.06,69.63,61.03,69.65z"/>
<path class="st0" d="M66.3,83.4c1.23,1.04,2.38,2,3.52,2.98c1.99,1.69,3.98,3.4,5.99,5.08c2.34,1.95,4.69,3.9,7.06,5.82
	c2.48,2,4.98,3.98,7.49,5.95c2.62,2.05,5.49,3.76,8.5,5.26c2.5,1.24,5.11,2.27,7.86,2.91c1.99,0.47,4.04,0.81,6.08,1.04
	c1.41,0.16,2.87,0.12,4.3,0.01c2.08-0.17,4.2-0.29,6.22-0.77c6.3-1.5,10.72-5.2,13.47-10.74c-16.07-10.91-32.11-21.8-48.13-32.68
	C81.2,73.31,73.78,78.33,66.3,83.4z"/>
<path class="st0" d="M14.24,44.52c2.19,1.69,4.6,3,7.26,3.89c2.72,0.91,5.52,1.37,8.4,1.38c0.21,0,0.47,0.04,0.61,0.16
	c0.76,0.68,1.51,1.38,2.23,2.11c1.65,1.65,3.29,3.32,4.91,4.95c4.9-4.53,9.74-9,14.6-13.48c-1.1-0.75-2.17-1.48-3.19-2.17
	c0.67-0.94,1.3-1.8,1.9-2.67c2.51-3.67,3.71-7.73,3.78-12.06c0.03-1.8-0.24-3.64-0.6-5.42c-0.46-2.33-1.41-4.53-2.68-6.59
	c-1.52-2.46-3.44-4.61-5.75-6.46c-1.96-1.57-4.14-2.76-6.48-3.69c-2.2-0.88-4.49-1.51-6.9-1.57c-1.96-0.05-3.94-0.18-5.87,0.04
	c-2.98,0.34-5.8,1.25-8.47,2.62c-4.12,2.12-7.37,5.08-9.68,8.91c-2.65,4.39-3.71,9.12-3.17,14.18c0.3,2.81,1.11,5.46,2.41,7.98
	C9.14,39.73,11.41,42.34,14.24,44.52z M18.09,26.28c-0.17-6.2,5.41-11.08,11.57-11.18c6.72-0.1,12.05,5.11,12.03,11.23
	c-0.02,6.03-5.38,11.3-12.33,11.09C23.5,37.25,17.91,32.49,18.09,26.28z"/>
</svg>
