<?xml version="1.0" encoding="utf-8"?>
<!-- Generator: Adobe Illustrator 24.2.3, SVG Export Plug-In . SVG Version: 6.00 Build 0)  -->
<svg version="1.1" id="Layer_1" xmlns="http://www.w3.org/2000/svg" xmlns:xlink="http://www.w3.org/1999/xlink" x="0px" y="0px"
	 viewBox="0 0 200 300" style="enable-background:new 0 0 200 300;" xml:space="preserve">
<style type="text/css">
	.st0{fill:#F9F7F7;}
	.st1{fill:#FBFBFB;}
	.st2{fill:#F8F8F8;}
	.st3{fill:#F7F7F7;}
	.st4{fill:none;}
	.st5{fill:#FFFFFF;}
	.st6{fill:#FFFDF5;}
</style>
<g>
	<g>
		<path class="st0" d="M106.94,13.47h-14.9c-0.43,0-0.81,0.25-0.94,0.64l-0.88,2.48c-0.1,0.3-0.05,0.59,0.13,0.84
			c0.18,0.25,0.48,0.39,0.81,0.39h16.67c0.33,0,0.61-0.14,0.81-0.39c0.18-0.25,0.23-0.56,0.13-0.84l-0.88-2.48
			C107.75,13.72,107.37,13.47,106.94,13.47z"/>
		<path class="st0" d="M108.59,26.47l-3.52-0.56c-0.2-0.03-0.38-0.03-0.58,0l-4.99,0.78l-5.04,0.78c-0.2,0.03-0.38,0.03-0.58,0
			L90.98,27c-1.07-0.17-2.05,0.61-2.05,1.63v0.53c0,0.23,0.03,0.45,0.07,0.68c0.25,2,1.19,3.49,2.86,4.53
			c1.82,1.13,4.46,1.74,7.65,1.74c3.19,0,5.82-0.61,7.65-1.74c1.67-1.04,2.61-2.53,2.86-4.53c0.05-0.22,0.07-0.45,0.07-0.68v-1.09
			C110.06,27.29,109.43,26.61,108.59,26.47z"/>
		<path class="st0" d="M87.12,9.56c1.72,0,4.68,1.48,5.06,2.14c0.1,0.19,0.3,0.31,0.53,0.33l0,0h0.07h1.59h11.25l3.83-5.79
			c0.3-0.4-0.05-1.02-0.55-1.02L92.3,6.41c-0.38,0.03-0.76,0.25-0.69,0.62l0.02,0.05h-0.5c-0.21,0-0.43,0.11-0.55,0.28
			c-0.02,0.02-0.02,0.03-0.03,0.05c-0.12,0.19-0.33,0.3-0.56,0.3h-2.86c-0.55,0-0.45-1.24-1.82-1.24c-1.37,0-2.15,2.38-2.15,4.19
			c0,1.8,0,4.63,0,7.14c0,2.5-2.3,4.81-0.83,4.81c1.27,0,1.98-2.42,2.81-4.5C85.97,16.02,84.94,9.56,87.12,9.56z"/>
		<path class="st0" d="M107.2,18.13h-0.28h-1.59h-11.7h-1.26h-0.61c-3.01,2.94-5.5,6.91-5.5,10.56c0,7.49,6.56,9.94,13.22,9.94
			c6.66,0,13.22-2.45,13.22-9.94C112.71,25.04,110.21,21.07,107.2,18.13z M107.86,35.43c-2.03,1.27-4.94,1.96-8.38,1.96
			c-3.44,0-6.34-0.67-8.38-1.96c-2.33-1.46-3.52-3.73-3.52-6.74c0-2.75,1.73-6.18,4.63-9.19c0.05-0.05,0.08-0.08,0.13-0.12
			c0.02,0,0.03,0,0.03,0h14.26c0.03,0.05,0.08,0.08,0.12,0.12c2.89,3.01,4.63,6.45,4.63,9.19C111.38,31.7,110.19,33.97,107.86,35.43
			z"/>
	</g>
	<g id="Hot_dog">
		<path class="st0" d="M118.19,104.24c0.29-0.14,0.41-0.49,0.27-0.78c-0.14-0.29-0.49-0.41-0.78-0.27
			c-0.03,0.01-0.06,0.03-0.08,0.05c0.18-0.27,0.1-0.63-0.17-0.81c-0.27-0.18-0.63-0.1-0.81,0.17c-0.04,0.06-0.07,0.13-0.08,0.2
			l0,0.01c-0.03,0.13-0.16,0.21-0.29,0.18c-0.03-0.01-0.06-0.02-0.09-0.04c-0.53-0.38-1.15-0.63-1.8-0.71
			c-0.42-2.94-3.14-4.98-6.08-4.56c-0.6,0.09-1.18,0.27-1.72,0.55c-0.26,0.14-0.53,0.26-0.81,0.36c-1.27,0.43-3.84,0.99-6.73-0.12
			c-3.06-1.18-4.65-3.67-5.19-4.68c-0.1-0.18-0.19-0.37-0.26-0.57c-1.04-2.78-4.13-4.2-6.91-3.16c-0.56,0.21-1.09,0.51-1.55,0.9
			c-0.55-0.38-1.18-0.62-1.84-0.68c-0.14-0.01-0.24-0.14-0.23-0.28c0-0.04,0.01-0.07,0.03-0.1c0.05-0.09,0.08-0.2,0.08-0.3
			c0.01-0.32-0.25-0.59-0.57-0.59c-0.29-0.01-0.54,0.2-0.59,0.49c-0.07-0.32-0.38-0.51-0.7-0.44c-0.32,0.07-0.51,0.38-0.44,0.7
			c0.01,0.03,0.02,0.06,0.03,0.09c-0.22-0.23-0.59-0.24-0.83-0.02c-0.01,0.01-0.02,0.02-0.03,0.03c-0.21,0.25-0.19,0.63,0.06,0.84
			c0.04,0.03,0.08,0.06,0.13,0.09l0.07,0.03c0.13,0.06,0.18,0.22,0.12,0.34c-0.01,0.03-0.04,0.06-0.06,0.08
			c-1.05,0.93-1.51,2.36-1.2,3.73c0.19,0.65,0.42,1.29,0.68,1.91c-0.46,0.07-0.91,0.21-1.34,0.39c-2.43,1.06-3.72,3.74-3.04,6.3
			l-0.03,0.01l0.2,0.53c0.17,0.44,1.12,2.77,3.55,5.58c3.1,3.59,7.35,6.49,12.3,8.4c3.6,1.4,7.43,2.12,11.3,2.13
			c1.06,0,2.11-0.06,3.16-0.17c3.45-0.38,5.7-1.24,6.31-1.5c0.02-0.01,0.07-0.03,0.11-0.05l0.03-0.01c1.34-0.6,2.37-1.73,2.86-3.11
			c0.62-1.77,0.28-3.73-0.9-5.19c0.61-0.28,1.21-0.6,1.79-0.95c1.16-0.81,1.78-2.19,1.61-3.6c-0.02-0.13,0.08-0.25,0.21-0.27
			c0.03,0,0.06,0,0.1,0.01l0.03,0.01c0.32,0.1,0.65-0.08,0.74-0.4c0.02-0.05,0.02-0.1,0.03-0.16c0-0.32-0.26-0.58-0.59-0.58
			C118.22,104.24,118.2,104.24,118.19,104.24z M88.54,90.85c0.44,0,0.88,0.07,1.29,0.21c1.24,0.4,2.22,1.34,2.68,2.56
			c0.09,0.24,0.2,0.48,0.32,0.71c0.6,1.13,2.36,3.89,5.78,5.21c3.22,1.24,6.08,0.62,7.5,0.14c0.33-0.12,0.66-0.26,0.97-0.42
			c2.08-1.08,4.64-0.27,5.72,1.81c0.2,0.39,0.34,0.8,0.42,1.23c-0.53,0.09-1.04,0.3-1.49,0.6c-0.03,0.02-2.25,1.43-5.96,1.73
			c-0.24-0.61-0.7-1.57-1.96-2.05c-0.38-0.15-0.78-0.22-1.18-0.23c-0.8,0-1.4,0.3-1.8,0.5c-0.02,0.01-0.04,0.02-0.07,0.03
			c-0.01-0.03-0.02-0.05-0.03-0.07c-0.23-0.59-0.65-1.68-2.02-2.2c-0.38-0.15-0.78-0.22-1.18-0.23c-0.8,0-1.4,0.3-1.8,0.5
			c-0.02,0.01-0.04,0.02-0.07,0.03c-0.01-0.03-0.02-0.05-0.03-0.07c-0.23-0.59-0.65-1.68-2.02-2.2c-0.38-0.15-0.78-0.22-1.18-0.23
			c-0.8,0-1.4,0.3-1.8,0.5c-0.02,0.01-0.04,0.02-0.07,0.03c-0.01-0.03-0.02-0.05-0.03-0.07c-0.23-0.59-0.65-1.68-2.02-2.2
			c-0.07-0.03-0.14-0.05-0.21-0.06c-1.14-1.67-1.57-3.03-1.66-3.32c-0.01-0.03-0.02-0.06-0.02-0.08c-0.13-0.53-0.37-1.03-0.7-1.46
			C86.68,91.16,87.6,90.85,88.54,90.85z M108.86,106.41c-0.13,0.33-0.5,0.5-0.84,0.37c-0.36-0.14-0.58-0.04-1.02,0.18
			c-0.34,0.17-0.76,0.38-1.29,0.38c-0.26,0-0.53-0.05-0.77-0.15c-0.9-0.35-1.17-1.05-1.37-1.56c-0.18-0.46-0.28-0.68-0.63-0.82
			c-0.36-0.14-0.58-0.04-1.02,0.18c-0.49,0.24-1.16,0.58-2.06,0.23c-0.9-0.35-1.17-1.05-1.37-1.56c-0.18-0.46-0.28-0.68-0.63-0.82
			c-0.35-0.14-0.58-0.04-1.02,0.18c-0.49,0.24-1.16,0.58-2.06,0.23c-0.9-0.35-1.17-1.05-1.37-1.56c-0.18-0.46-0.28-0.68-0.63-0.82
			c-0.36-0.14-0.58-0.04-1.02,0.18c-0.49,0.24-1.16,0.58-2.06,0.23c-0.9-0.35-1.17-1.05-1.37-1.56c-0.18-0.46-0.28-0.68-0.63-0.82
			c-0.33-0.13-0.5-0.5-0.37-0.83c0.13-0.33,0.5-0.5,0.83-0.37c0,0,0,0,0,0c0.9,0.35,1.17,1.05,1.37,1.56
			c0.18,0.46,0.28,0.68,0.63,0.82c0.35,0.14,0.58,0.04,1.02-0.18c0.49-0.24,1.16-0.58,2.06-0.23c0.9,0.35,1.17,1.05,1.37,1.56
			c0.18,0.46,0.28,0.68,0.63,0.82c0.36,0.14,0.58,0.04,1.02-0.18c0.49-0.24,1.16-0.58,2.06-0.23c0.9,0.35,1.17,1.05,1.37,1.56
			c0.18,0.46,0.28,0.68,0.63,0.82c0.36,0.14,0.58,0.04,1.02-0.18c0.49-0.24,1.16-0.58,2.06-0.23c0.9,0.35,1.17,1.05,1.37,1.56
			c0.18,0.46,0.28,0.68,0.63,0.82c0.36,0.14,0.58,0.04,1.02-0.18c0.49-0.24,1.16-0.58,2.06-0.23
			C108.82,105.71,108.99,106.08,108.86,106.41C108.86,106.41,108.86,106.41,108.86,106.41z M114.15,114.99
			c-0.38,1.1-1.2,1.98-2.26,2.46l-0.03,0.02c-0.03,0.01-0.07,0.03-0.08,0.04c-0.57,0.24-2.7,1.06-5.99,1.42
			c-4.6,0.5-9.42-0.15-13.93-1.89c-4.78-1.85-8.88-4.64-11.85-8.09c-2.04-2.36-2.97-4.33-3.26-5.03l-0.08-0.21
			c-0.84-2.19,0.27-4.65,2.46-5.49c2.11-0.8,4.48,0.18,5.4,2.25c0.26,0.6,0.57,1.17,0.94,1.71c1.17,1.68,3.95,4.82,9.45,6.94
			c3.17,1.22,6.39,1.7,9.58,1.41c0.91-0.08,1.81-0.23,2.69-0.44c0.45-0.11,0.89-0.25,1.32-0.43c1.07-0.45,2.28-0.44,3.34,0.03
			C113.88,110.58,114.88,112.89,114.15,114.99L114.15,114.99z"/>
	</g>
	<path class="st1" d="M186.02,285.85c-0.25,0.88-0.36,1.71-0.71,2.45c-1.14,2.38-3.1,3.66-5.84,3.7c-3.14,0.04-6.27,0.02-9.41,0.01
		c-3.77-0.02-6.94-2.93-6.98-6.57c-0.06-6.34-0.02-10.5-0.02-16.84c0-1,0.7-1.66,1.75-1.66c6.46-0.01,12.93-0.01,19.39,0
		c1.08,0,1.65,0.57,1.65,1.63c0,1.14,0,2.29,0,3.47c0.21,0.01,0.38,0.02,0.55,0.03c0.78,0,3.03,0,3.81,0
		c2.82,0.04,2.6,2.34,2.61,3.49c0,3.09,0,3.06,0,6.14c0,0.63,0,0.79,0,1.41c-0.01,1.39-1.11,2.74-2.34,2.74
		C189.47,285.85,186.96,285.85,186.02,285.85z M185.75,283.05c2.66,0.03,4.12-0.99,4.17-2.31c0.07-1.91,0.05-1.63,0.01-3.54
		c-0.03-1.1-2.01-2.18-3.49-2.28c-0.22-0.02-0.44-0.06-0.69-0.09C185.75,278.34,185.75,279.58,185.75,283.05z"/>
	<path class="st1" d="M175.87,262.46c0-1.63,0-0.94,0-2.57c0-0.17-0.01-0.35,0.04-0.5c0.13-0.36,0.4-0.6,0.8-0.63
		c0.42-0.02,0.73,0.21,0.87,0.59c0.07,0.19,0.08,0.42,0.08,0.63c0,3.24,0,0.71,0,3.95c0,0.81-0.3,1.22-0.89,1.21
		c-0.57,0-0.91-0.46-0.91-1.21C175.87,262.29,175.87,264.09,175.87,262.46z"/>
	<path class="st1" d="M173.1,262.48c0,1.1,0,0.63,0,1.73c0,0.63-0.27,0.92-0.84,0.93c-0.51,0.01-0.95-0.39-0.95-0.94
		c-0.01-2.24-0.01,0.35,0-1.89c0-0.55,0.38-0.95,0.87-0.96c0.5-0.01,0.92,0.4,0.92,0.96C173.11,263.46,173.1,261.34,173.1,262.48z"
		/>
	<path class="st1" d="M168.54,263.36c0,0.82,0.01,0.08,0,0.9c-0.01,0.58-0.29,0.87-0.85,0.88c-0.48,0.01-0.93-0.37-0.94-0.85
		c-0.02-1.72-0.02-0.01,0-1.74c0-0.48,0.43-0.84,0.89-0.84c0.49,0,0.89,0.4,0.9,0.94C168.55,263.51,168.54,262.5,168.54,263.36z"/>
	<path class="st1" d="M180.43,263c0-0.4-0.01,0.77,0,0.38c0.02-0.49,0.38-0.87,0.84-0.89c0.47-0.02,0.92,0.34,0.94,0.85
		c0.03,0.87,0.03,0.17,0.01,1.04c-0.01,0.44-0.38,0.75-0.85,0.76c-0.45,0.02-0.9-0.36-0.93-0.81
		C180.42,263.89,180.44,263.44,180.43,263C180.44,263,180.44,263,180.43,263z"/>
	<g>
		<path class="st2" d="M20.26,271.58H6.1l0.06,0.95c0.01-0.01,0.01-0.02,0.02-0.02c0.16,1.63,0.32,3.14,0.46,4.65
			c0.19,1.92,0.36,3.85,0.54,5.77c0.18,1.94,0.36,3.87,0.55,5.81c0.18,1.96,0.37,3.93,0.54,5.89c0.03,0.32,0.17,0.43,0.53,0.43
			c3.82,0,7.65,0,11.47,0c3.82,0,7.65,0,11.47,0c0.36,0,0.5-0.12,0.53-0.43c0.17-1.96,0.36-3.93,0.54-5.89
			c0.18-1.94,0.36-3.87,0.55-5.81c0.18-1.92,0.36-3.85,0.54-5.77c0.15-1.51,0.3-3.01,0.46-4.65c0.01,0.01,0.01,0.02,0.02,0.02
			l0.06-0.95H20.29H20.26z M20.29,294.39c-0.01,0-0.02,0-0.03,0c-3.51,0-7.03,0-10.58,0c3.56-2.69,7.07-5.34,10.58-8v0.01
			c0.01,0,0.01-0.01,0.02-0.01c0.01,0,0.01,0.01,0.02,0.01v-0.01c3.51,2.66,7.02,5.31,10.58,8
			C27.32,294.39,23.81,294.39,20.29,294.39z M33.35,272.19c-1.24,2.51-2.49,5.01-3.72,7.52c-0.12,0.24-0.29,0.28-0.56,0.28
			c-2.93,0-5.85,0-8.78,0l0,0c-0.01,0-0.01,0-0.02,0s-0.01,0-0.02,0l0,0c-2.93,0-5.85,0-8.78,0c-0.27,0-0.44-0.03-0.56-0.28
			c-1.23-2.51-2.48-5.02-3.72-7.52c-0.05-0.1-0.08-0.22-0.13-0.35c4.4,0,8.79,0,13.18,0c0.01,0,0.02,0,0.03,0c4.39,0,8.78,0,13.18,0
			C33.42,271.98,33.4,272.09,33.35,272.19z"/>
		<path class="st2" d="M34.26,270.3c-0.12-1.21-0.28-1.94-0.42-3.15c-0.04-0.3-0.11-0.6-0.1-0.89c0.02-0.37-0.23-0.47-0.56-0.54
			c-2.08-0.45-5.57-0.9-7.66-1.35c-0.54-0.12-1.08-0.23-1.62-0.33c-0.29-0.05-0.42-0.19-0.48-0.43c-0.16-0.62-0.36-0.92-0.52-1.54
			c-0.07-0.28-0.23-0.85-0.56-0.85c-1.16,0-0.9,0.01-2.06,0.01c-1.16,0-0.9,0-2.06-0.01c-0.33,0-0.49,0.58-0.56,0.85
			c-0.16,0.62-0.36,0.92-0.52,1.54c-0.06,0.24-0.2,0.38-0.48,0.43c-0.54,0.1-2.49,0.21-3.03,0.33c-2.08,0.45-4.16,0.9-6.24,1.35
			c-0.33,0.07-0.58,0.18-0.56,0.54c0.01,0.3-0.06,0.6-0.1,0.89c-0.14,1.21-0.3,1.94-0.42,3.15c-0.04,0.43-0.1,0.54-0.22,0.94
			l0.02,0.34H6.1l-0.01-0.08h14.17h0.03h14.17l-0.01,0.08h0.01l0.02-0.34C34.36,270.84,34.3,270.73,34.26,270.3z M33.3,271.28
			c-4.34,0-8.68,0-13.02,0.01c-4.34-0.01-8.68-0.01-13.02-0.01c-0.1,0-0.2-0.01-0.36-0.02c0.08-0.79,0.16-1.23,0.25-1.99
			c0.11-0.95,0.23-1.42,0.32-2.37c0.03-0.35,0.1-0.56,0.6-0.66c2.55-0.52,6.5-1.09,9.05-1.63c0.39-0.08,0.59-0.25,0.67-0.58
			c0.17-0.67,0.37-1.33,0.56-1.99c1.12,0,0.81,0,1.92,0c0.01,0,0.02,0,0.03,0c1.11,0,0.8,0,1.92,0c0.19,0.67,0.39,1.33,0.56,1.99
			c0.08,0.33,0.29,0.5,0.67,0.58c2.55,0.54,6.5,1.11,9.05,1.63c0.49,0.1,0.56,0.31,0.6,0.66c0.09,0.95,0.22,1.42,0.32,2.37
			c0.09,0.76,0.16,1.21,0.25,1.99C33.5,271.27,33.4,271.28,33.3,271.28z"/>
	</g>
	<g>
		<path class="st3" d="M159.28,203.39c-0.2,0-0.39,0-0.59,0c-0.41-0.18-0.7-0.48-0.88-0.9c0-0.2,0-0.4,0-0.6
			c0.05-0.15,0.11-0.3,0.15-0.46c2.38-9.23,4.76-18.46,7.13-27.7c0.07-0.27,0.18-0.35,0.45-0.34c1.99,0.07,3.95,0.3,5.88,0.81
			c5.13,1.37,9.27,4.17,12.19,8.75c2.36,3.71,3.39,7.85,3.55,12.24c0.01,0.3-0.15,0.32-0.34,0.37c-1.59,0.45-3.18,0.9-4.77,1.35
			c-6.59,1.86-13.18,3.73-19.77,5.59C161.27,202.79,160.28,203.09,159.28,203.39z M173.02,183c0-1.35-1.03-2.41-2.34-2.42
			c-1.32-0.01-2.37,1.04-2.36,2.34c0.01,1.32,1.07,2.39,2.38,2.38C172.04,185.3,173.02,184.33,173.02,183z M169.5,193.86
			c0-1.35-1.03-2.4-2.35-2.4c-1.29,0-2.34,1.07-2.35,2.37c-0.01,1.28,1.08,2.36,2.37,2.35C168.48,196.18,169.5,195.16,169.5,193.86z
			 M177.79,192.51c1.3,0,2.34-1.02,2.35-2.31c0.01-1.33-1.05-2.41-2.34-2.42c-1.3,0-2.36,1.08-2.36,2.4
			C175.45,191.46,176.51,192.51,177.79,192.51z"/>
		<path class="st3" d="M191.72,192.14c-0.14,0.34-0.25,0.7-0.44,1.01c-0.27,0.45-0.7,0.75-1.21,0.9c-1.3,0.37,0.28-0.13-1.03,0.24
			c-0.06,0.02-0.12,0.01-0.19,0.02c-0.06-0.67-0.1-1.34-0.18-2c-0.76-6.38-3.33-11.8-8.46-15.82c-2.96-2.32-6.33-3.72-10.01-4.36
			c-1.35-0.24-2.74-0.31-4.11-0.46c-0.08-0.01-0.16-0.02-0.28-0.03c0.03-0.15,0.05-0.28,0.09-0.42c0.3-1.14-0.37,0.76-0.08-0.39
			c0.25-1,0.85-1.63,1.85-1.87c0.03-0.01,0.06-0.04,0.09-0.05c0.29,0,0.57,0,0.86,0c0.67,0.11,1.33,0.22,2,0.32
			c4.49,0.62,9.63,2.6,13.15,5.85c4.23,4.74,6.43,8.46,7.61,14.38c0.12,0.63,0.23,1.26,0.34,1.9
			C191.72,191.61,191.72,191.88,191.72,192.14z"/>
	</g>
	<g>
		<path class="st1" d="M12.9,196.41c-0.42-0.4-0.85-0.79-1.27-1.19c-0.37-0.36-0.38-0.77-0.09-1.14c1.86-2.3,3.46-5.23,3.94-8.23
			c0.44-2.79,1.44-5.35,2.95-7.66c1.57-2.39,3.71-4.02,6.66-4.5c2.13-0.34,4.2,0.01,6.06,1.29c2.28,1.56,3.42,3.77,3.57,6.43
			c0.13,2.19-0.53,4.13-1.74,5.85c-1.13,1.61-2.72,2.73-4.4,3.72c-1.85,1.09-3.88,1.75-5.99,2.28c-2.04,0.51-4.17,1.81-5.79,3.09
			c-0.53,0.42-1.03,0.85-1.54,1.29c-0.33,0.28-0.75,0.27-1.12-0.07C13.73,197.18,13.31,196.79,12.9,196.41z"/>
		<path class="st1" d="M7.32,200.09c0.79-0.85,1.57-1.68,2.36-2.53c0.74,0.69,1.45,1.36,2.21,2.06c-0.78,0.84-1.57,1.68-2.34,2.51
			c1.11,1.25,0.87,2.2,0.44,2.91c-0.35,0.57-1.33,0.88-2.08,0.68c-1.02-0.28-1.53-0.94-1.71-2.24c-0.56,0.04-1.12-0.06-1.54-0.45
			c-0.32-0.29-0.59-0.69-0.76-1.08c-0.31-0.75,0-1.74,0.57-2.13C5.28,199.24,6.29,199.21,7.32,200.09z"/>
	</g>
	<path class="st2" d="M104.99,266.08c-1-1.7-2.49-3-4.86-3.36c-1.33-0.2-2.73-0.14-4.1-0.16c-0.27,0-0.45-0.03-0.57-0.11
		c0-0.6,0.01-1.2-0.02-1.81c-0.03-0.72,0.18-1.12,0.79-1.48c1.65-0.96,2.29-3.11,1.57-4.95c-0.75-1.91-2.63-2.91-4.47-2.4
		c-1.61,0.44-2.53,1.59-2.87,3.24c-0.32,1.56,0.42,3.23,1.81,4.08c0.64,0.39,0.82,0.85,0.8,1.58c-0.02,0.61-0.01,1.23-0.01,1.84
		c-0.09,0.01-0.18,0.02-0.3,0.02c-0.91-0.04-1.83-0.05-2.73,0.01c-2.01,0.13-3.77,0.72-5.09,1.99c-1.9,1.82-2.35,3.99-2,6.23
		c0.39,2.45,1.05,4.88,1.6,7.32c0.51,2.28,1.57,4.56,2.09,6.84c0.28,1.22,0.56,2.44,0.84,3.69c2.18,0,3.77,0,5.97,0
		c0,2.43,0,3.63,0,6.02c0.6,0,1.12,0,1.71,0c0-2.42,0-3.62,0-6.03c2.14,0,3.4,0,5.52,0c0.07-0.21,0.15-0.38,0.19-0.55
		c0.34-1.47,0.96-2.93,1.29-4.4c0.51-2.25,1.54-4.49,2.05-6.74c0.43-1.88,0.85-3.76,1.31-5.64
		C105.95,269.52,105.98,267.77,104.99,266.08z M92.74,255.77c-0.04-0.81,0.73-1.65,1.51-1.67c0.77-0.01,1.55,0.81,1.54,1.63
		c-0.01,0.75-0.77,1.54-1.51,1.56C93.55,257.31,92.78,256.55,92.74,255.77z"/>
	<path class="st3" d="M40.98,109.97c-13.21,0-26.37,0-39.61,0c-0.06-1.05-0.14-1.01-0.16-2.04c-0.02-0.66,0.28-1.05,0.73-1.1
		c0.12-0.01,0.24,0,0.36,0c12.61,0,25.23,0,37.84,0c0.84,0,1.06,0.34,1.04,1.58c0,0.16,0,0.31-0.02,0.47
		C41.1,109.58,41.04,109.21,40.98,109.97z"/>
	<path class="st3" d="M14.15,92.89c0.83-2.45,1.84-4.59,3.25-6.26c2.46-2.91,5.17-2.89,7.62,0.04c1.24,1.48,2.52,3.97,3.2,6.23
		C23.53,92.89,18.87,92.89,14.15,92.89z"/>
	<path class="st3" d="M12.66,102.05c0.07-2.02,0.34-4.85,0.77-6.55c0.04-0.18,0.25-0.37,0.37-0.37c4.92-0.02,9.84-0.02,14.77,0
		c0.13,0,0.34,0.14,0.37,0.28c0.45,1.74,0.71,4.61,0.8,6.64c-0.64-0.95-1.21-1.77-1.76-2.64c-0.97-1.53-1.18-1.55-2.15-0.01
		c-0.57,0.9-1.17,1.76-1.78,2.68c-0.74-1.11-1.45-2.18-2.17-3.24c-0.54-0.81-0.85-0.81-1.39,0c-0.71,1.06-1.42,2.13-2.15,3.22
		c-0.74-1.11-1.46-2.17-2.17-3.23c-0.54-0.8-0.85-0.8-1.39,0.01C14.1,99.87,13.43,100.89,12.66,102.05z"/>
	<path class="st3" d="M21.21,100.95c0.82,1.24,1.62,2.46,2.41,3.68c-1.6,0-3.25,0-4.87,0C19.55,103.43,20.37,102.21,21.21,100.95z"
		/>
	<path class="st3" d="M17.89,104.66c-1.59,0-3.2,0-4.74,0c0.78-1.16,1.58-2.36,2.39-3.56C16.28,102.22,17.09,103.45,17.89,104.66z"
		/>
	<path class="st3" d="M24.44,104.63c0.81-1.23,1.61-2.44,2.38-3.59c0.82,1.23,1.62,2.44,2.39,3.59
		C27.7,104.63,26.08,104.63,24.44,104.63z"/>
	<path class="st3" d="M1.86,112.18c1.23,0,2.42,0,3.69,0c-0.68,1.52-1.33,2.97-2.01,4.49C2.78,115.3,2.24,113.83,1.86,112.18z"/>
	<path class="st3" d="M40.51,112.21c-0.35,1.61-0.92,3.04-1.64,4.47c-0.68-1.51-1.33-2.95-2.01-4.47
		C38.09,112.21,39.28,112.21,40.51,112.21z"/>
	<path class="st3" d="M8.26,112.17c1.03,0,1.97,0,2.99,0c-0.51,1.14-0.98,2.2-1.49,3.34C9.26,114.38,8.78,113.32,8.26,112.17z"/>
	<path class="st3" d="M16.96,112.21c-0.5,1.12-0.97,2.16-1.48,3.29c-0.5-1.11-0.98-2.16-1.49-3.29
		C14.99,112.21,15.94,112.21,16.96,112.21z"/>
	<path class="st3" d="M21.19,115.52c-0.51-1.15-0.98-2.19-1.48-3.31c1,0,1.95,0,2.96,0C22.17,113.32,21.7,114.37,21.19,115.52z"/>
	<path class="st3" d="M25.41,112.18c1.02,0,1.96,0,2.98,0c-0.5,1.12-0.97,2.18-1.49,3.33C26.4,114.39,25.92,113.32,25.41,112.18z"/>
	<path class="st3" d="M31.12,112.17c1.04,0,1.97,0,2.99,0c-0.51,1.14-0.99,2.2-1.5,3.34C32.11,114.38,31.64,113.32,31.12,112.17z"/>
	<path class="st3" d="M35.47,113.04c-0.75,1.68-1.45,3.28-2.16,4.86c-0.4,0.88-0.96,0.87-1.37,0.01c-0.08-0.18-0.17-0.37-0.25-0.55
		c-0.63-1.41-1.27-2.82-1.92-4.29c-0.11,0.24-0.2,0.41-0.28,0.59c-0.63,1.4-1.25,2.81-1.88,4.21c-0.41,0.91-0.98,0.92-1.39,0.02
		c-0.41-0.9-0.81-1.81-1.21-2.71c-0.31-0.69-0.63-1.38-0.97-2.12c-0.69,1.55-1.39,2.99-1.99,4.52c-0.49,1.25-1.2,1.28-1.69,0.03
		c-0.54-1.38-1.17-2.67-1.77-3.99c-0.08-0.17-0.17-0.33-0.27-0.52c-0.11,0.23-0.18,0.4-0.26,0.56c-0.62,1.38-1.23,2.77-1.85,4.15
		c-0.45,1.01-1.01,1.01-1.47-0.01c-0.32-0.72-0.64-1.44-0.97-2.16c-0.38-0.84-0.75-1.68-1.16-2.58c-0.73,1.63-1.41,3.18-2.1,4.72
		c-0.47,1.06-1.02,1.05-1.49-0.01c-0.69-1.54-1.39-3.09-2.12-4.72c-0.82,1.83-1.59,3.55-2.37,5.28c0.06,0.11,0.1,0.18,0.14,0.24
		c2.05,2.75,4.46,2.8,7.21,2.81c1.73,0.01,3.47,0.01,5.2,0.01c1.21-0.66,2.73-1.06,4.4-1.06c1.66,0,3.19,0.4,4.4,1.07
		c1.53,0,3.05,0,4.58-0.01c1.49,0,2.92-0.45,4.28-1.34c1.15-0.75,2.19-0.35,3.11-1.68C37.06,116.58,36.28,114.84,35.47,113.04z"/>
	<g>
		<path class="st0" d="M159.37,19.46c-0.2-3.2-0.38-6.4-0.61-9.6c-0.07-1.04,0.35-1.79,1.39-2.37c2.6-1.46,5.17-2.96,7.75-4.45
			c1.42-0.82,2.69-0.61,3.61,0.59c7.26,9.44,14.52,18.88,21.77,28.31c0.95,1.23,0.68,2.31-0.77,3.14c-2.58,1.49-5.17,2.96-7.74,4.46
			c-1,0.59-1.94,0.63-3.01,0.18c-6.71-2.83-13.42-5.64-20.15-8.44c-1.08-0.45-1.59-1.12-1.65-2.14
			C159.8,25.92,159.58,22.69,159.37,19.46z M162.69,7.21c-0.78,0.45-1.43,0.84-2.1,1.2c-0.5,0.27-0.7,0.64-0.67,1.14
			c0.42,6.58,0.83,13.16,1.24,19.74c0.03,0.48,0.27,0.8,0.78,1.02c6.87,2.87,13.74,5.75,20.6,8.63c0.48,0.2,0.93,0.18,1.38-0.09
			c0.49-0.28,0.98-0.56,1.46-0.84c0.1-0.06,0.24-0.14,0.26-0.23c0.19-0.62-0.26-1.45-0.94-1.74c-0.91-0.38-1.39-0.99-1.42-1.86
			c-0.02-0.54-0.3-0.9-0.88-1.12c-0.91-0.36-1.39-0.99-1.41-1.86c-0.01-0.52-0.28-0.88-0.83-1.09c-0.94-0.36-1.42-1-1.46-1.89
			c-0.02-0.52-0.29-0.87-0.84-1.09c-0.91-0.36-1.41-0.97-1.43-1.85c-0.01-0.54-0.29-0.91-0.86-1.13c-0.92-0.36-1.4-0.99-1.44-1.85
			c-0.02-0.54-0.29-0.91-0.86-1.13c-0.92-0.36-1.39-0.98-1.42-1.85c-0.01-0.52-0.28-0.89-0.83-1.1c-0.96-0.37-1.45-1.03-1.48-1.93
			c-0.02-0.48-0.26-0.83-0.77-1.03c-0.98-0.38-1.49-1.02-1.51-1.96c-0.01-0.47-0.28-0.83-0.78-1.02c-0.98-0.38-1.44-1.03-1.54-1.95
			c-0.04-0.33-0.27-0.77-0.57-0.91C163.36,8.97,162.71,8.34,162.69,7.21z M168.01,4.15c7.81,10.15,15.59,20.27,23.37,30.39
			c1.54-0.81,1.63-1.14,0.72-2.33c-7.16-9.3-14.31-18.61-21.47-27.91c-0.11-0.15-0.22-0.3-0.35-0.43c-0.36-0.35-0.89-0.43-1.38-0.21
			C168.6,3.8,168.33,3.97,168.01,4.15z M188.27,36.36c-7.81-10.16-15.59-20.27-23.38-30.4c-0.33,0.19-0.62,0.34-0.9,0.51
			c-0.09,0.05-0.2,0.12-0.22,0.2c-0.18,0.6,0.29,1.46,0.95,1.74c0.9,0.38,1.39,0.99,1.42,1.86c0.01,0.51,0.27,0.89,0.82,1.1
			c0.96,0.37,1.45,1.02,1.48,1.93c0.02,0.51,0.29,0.84,0.81,1.05c0.93,0.37,1.43,0.99,1.46,1.88c0.02,0.51,0.28,0.88,0.83,1.09
			c0.94,0.36,1.43,1,1.46,1.88c0.01,0.52,0.29,0.88,0.84,1.09c0.92,0.36,1.41,0.98,1.45,1.84c0.03,0.56,0.3,0.93,0.9,1.16
			c0.87,0.34,1.35,0.94,1.38,1.77c0.02,0.58,0.3,0.96,0.92,1.2c0.88,0.34,1.34,0.96,1.38,1.78c0.03,0.61,0.34,0.97,0.97,1.22
			c0.82,0.33,1.28,0.92,1.3,1.71c0.02,0.6,0.31,0.99,0.94,1.24c0.86,0.33,1.32,0.94,1.35,1.74c0.03,0.63,0.35,1,0.99,1.26
			c0.76,0.3,1.18,0.85,1.28,1.58c0.02,0.12,0.05,0.23,0.08,0.39C187.3,36.91,187.75,36.65,188.27,36.36z"/>
		<path class="st0" d="M162.23,11.76c0.12,0.1,0.36,0.24,0.51,0.44c1.46,1.87,2.9,3.75,4.34,5.63c4.52,5.88,9.04,11.76,13.56,17.64
			c0.11,0.15,0.3,0.29,0.31,0.45c0.01,0.21-0.04,0.53-0.2,0.61c-0.16,0.09-0.5-0.02-0.73-0.1c-0.12-0.04-0.18-0.2-0.26-0.3
			c-5.98-7.77-11.95-15.54-17.93-23.31c-0.09-0.12-0.19-0.24-0.25-0.37C161.43,12.12,161.68,11.8,162.23,11.76z"/>
	</g>
	<g>
		<path class="st4" d="M36.69,30.99c0-0.3-0.22-0.54-0.5-0.54H11.39c-0.27,0-0.5,0.24-0.5,0.54v1.08c0,0.89,0.67,1.62,1.49,1.62
			h22.82c0.82,0,1.49-0.73,1.49-1.62h0V30.99z"/>
		<path class="st4" d="M11.39,15.42H36.2c0.32,0,0.5-0.19,0.5-0.54c0.01-0.09,0.3-1.93-2.4-5.15c-2.2-2.61-5.73-3.94-10.5-3.94
			c-4.78,0-8.32,1.33-10.51,3.95c-2.7,3.22-2.39,5.04-2.39,5.09C10.9,15.22,11.08,15.42,11.39,15.42z M31.25,9.04L31.25,9.04
			c0.28,0,0.5,0.24,0.5,0.54c0,0.3-0.22,0.54-0.5,0.54c-0.27,0-0.5-0.24-0.5-0.54C30.75,9.28,30.97,9.04,31.25,9.04z M29.26,10.12
			L29.26,10.12c0.28,0,0.5,0.24,0.5,0.54c0,0.3-0.22,0.54-0.5,0.54c-0.27,0-0.5-0.24-0.5-0.54C28.77,10.36,28.99,10.12,29.26,10.12z
			 M27.28,7.96L27.28,7.96c0.28,0,0.5,0.24,0.5,0.54c0,0.3-0.22,0.54-0.5,0.54c-0.27,0-0.5-0.24-0.5-0.54
			C26.79,8.2,27.01,7.96,27.28,7.96z M24.3,10.12L24.3,10.12c0.28,0,0.5,0.24,0.5,0.54c0,0.3-0.22,0.54-0.5,0.54
			c-0.27,0-0.5-0.24-0.5-0.54C23.81,10.36,24.03,10.12,24.3,10.12z M23.31,6.87L23.31,6.87c0.28,0,0.5,0.24,0.5,0.54
			c0,0.3-0.22,0.54-0.5,0.54c-0.27,0-0.5-0.24-0.5-0.54C22.82,7.12,23.04,6.87,23.31,6.87z M20.33,9.04L20.33,9.04
			c0.28,0,0.5,0.24,0.5,0.54c0,0.3-0.22,0.54-0.5,0.54c-0.27,0-0.5-0.24-0.5-0.54C19.84,9.28,20.06,9.04,20.33,9.04z M17.36,7.96
			L17.36,7.96c0.28,0,0.5,0.24,0.5,0.54c0,0.3-0.22,0.54-0.5,0.54c-0.27,0-0.5-0.24-0.5-0.54C16.86,8.2,17.08,7.96,17.36,7.96z"/>
		<path class="st5" d="M24.31,11.2c0.27,0,0.5-0.24,0.5-0.54c0-0.3-0.22-0.54-0.5-0.54h0c-0.27,0-0.49,0.24-0.49,0.54
			C23.81,10.96,24.03,11.2,24.31,11.2z"/>
		<path class="st5" d="M20.34,10.12c0.27,0,0.5-0.24,0.5-0.54c0-0.3-0.22-0.54-0.5-0.54h0c-0.27,0-0.49,0.24-0.49,0.54
			C19.84,9.88,20.06,10.12,20.34,10.12z"/>
		<path class="st5" d="M27.28,9.04c0.27,0,0.5-0.24,0.5-0.54c0-0.3-0.22-0.54-0.5-0.54h0c-0.27,0-0.49,0.24-0.49,0.54
			C26.79,8.8,27.01,9.04,27.28,9.04z"/>
		<path class="st5" d="M31.25,10.12c0.27,0,0.5-0.24,0.5-0.54c0-0.3-0.22-0.54-0.5-0.54h0c-0.27,0-0.49,0.24-0.49,0.54
			C30.75,9.88,30.98,10.12,31.25,10.12z"/>
		<path class="st5" d="M29.27,11.2c0.27,0,0.5-0.24,0.5-0.54c0-0.3-0.22-0.54-0.5-0.54h0c-0.27,0-0.49,0.24-0.49,0.54
			C28.77,10.96,28.99,11.2,29.27,11.2z"/>
		<path class="st5" d="M23.31,7.96c0.27,0,0.5-0.24,0.5-0.54c0-0.3-0.22-0.54-0.5-0.54h0c-0.27,0-0.49,0.24-0.49,0.54
			C22.82,7.71,23.04,7.96,23.31,7.96z"/>
		<path class="st5" d="M36.2,29.37H11.39c-0.82,0-1.49,0.73-1.49,1.62v1.08c0,1.49,1.11,2.7,2.48,2.7h22.82
			c1.37,0,2.48-1.21,2.48-2.7v-1.08C37.69,30.1,37.02,29.37,36.2,29.37z M35.21,33.7H12.39c-0.82,0-1.49-0.73-1.49-1.62v-1.08
			c0-0.3,0.22-0.54,0.5-0.54H36.2c0.27,0,0.5,0.24,0.5,0.54v1.08h0C36.69,32.97,36.03,33.7,35.21,33.7z"/>
		<path class="st5" d="M36.35,19.5c-0.24,0.26-1,0.92-1.64,0.92c-0.28,0-0.4-0.12-0.64-0.38c-0.27-0.3-0.64-0.7-1.34-0.7
			c-0.7,0-1.07,0.4-1.34,0.7c-0.24,0.27-0.36,0.38-0.64,0.38c-0.28,0-0.4-0.12-0.64-0.38c-0.27-0.3-0.64-0.7-1.34-0.7
			c-0.7,0-1.07,0.4-1.34,0.7c-0.24,0.27-0.36,0.38-0.64,0.38c-0.28,0-0.4-0.12-0.64-0.38c-0.27-0.3-0.64-0.7-1.34-0.7
			s-1.07,0.4-1.34,0.7c-0.24,0.27-0.36,0.38-0.64,0.38c-0.28,0-0.4-0.12-0.64-0.38c-0.27-0.3-0.64-0.7-1.34-0.7
			c-0.7,0-1.07,0.4-1.34,0.7c-0.24,0.27-0.36,0.38-0.64,0.38s-0.4-0.12-0.64-0.38c-0.27-0.3-0.64-0.7-1.34-0.7s-1.07,0.4-1.34,0.7
			c-0.24,0.27-0.36,0.38-0.64,0.38c-0.28,0-0.4-0.12-0.64-0.38c-0.27-0.3-0.64-0.7-1.34-0.7c-1.16,0-2.22,1.11-2.34,1.24
			c-0.19,0.21-0.19,0.55,0,0.76c0.19,0.21,0.51,0.21,0.7,0c0.24-0.26,0.99-0.92,1.63-0.92c0.28,0,0.4,0.12,0.64,0.38
			c0.27,0.3,0.64,0.7,1.34,0.7c0.7,0,1.07-0.4,1.34-0.7c0.24-0.27,0.36-0.38,0.64-0.38c0.28,0,0.4,0.12,0.64,0.38
			c0.27,0.3,0.64,0.7,1.34,0.7s1.07-0.4,1.34-0.7c0.24-0.27,0.36-0.38,0.64-0.38c0.28,0,0.4,0.12,0.64,0.38
			c0.27,0.3,0.64,0.7,1.34,0.7c0.7,0,1.07-0.4,1.34-0.7c0.24-0.27,0.36-0.38,0.64-0.38c0.28,0,0.4,0.12,0.64,0.38
			c0.27,0.3,0.64,0.7,1.34,0.7s1.07-0.4,1.34-0.7c0.24-0.27,0.36-0.38,0.64-0.38c0.28,0,0.4,0.12,0.64,0.38
			c0.27,0.3,0.64,0.7,1.34,0.7c0.7,0,1.07-0.4,1.34-0.7c0.24-0.27,0.36-0.38,0.64-0.38c0.28,0,0.4,0.12,0.64,0.38
			c0.27,0.3,0.64,0.7,1.34,0.7c1.16,0,2.22-1.11,2.34-1.24c0.19-0.21,0.19-0.55,0-0.76C36.85,19.29,36.54,19.29,36.35,19.5z"/>
		<path class="st5" d="M17.36,9.04c0.27,0,0.5-0.24,0.5-0.54c0-0.3-0.22-0.54-0.5-0.54h0c-0.27,0-0.49,0.24-0.49,0.54
			C16.86,8.8,17.09,9.04,17.36,9.04z"/>
		<path class="st5" d="M11.39,16.5H36.2c0.86,0,1.49-0.68,1.49-1.57c0.02-0.19,0.35-2.34-2.65-5.91c-2.39-2.85-6.17-4.3-11.24-4.3
			c-5.07,0-8.85,1.45-11.24,4.3c-2.99,3.57-2.66,5.73-2.65,5.86C9.91,15.82,10.53,16.5,11.39,16.5z M13.29,9.74
			c2.19-2.62,5.73-3.95,10.51-3.95c4.77,0,8.31,1.32,10.5,3.94c2.7,3.21,2.4,5.06,2.4,5.15c0,0.35-0.18,0.54-0.5,0.54H11.39
			c-0.32,0-0.5-0.2-0.5-0.59C10.89,14.78,10.58,12.97,13.29,9.74z"/>
		<path class="st5" d="M36.25,22.61H11.44c-0.82,0-1.49,0.73-1.49,1.62v1.08c0,1.49,1.11,1.74,2.48,1.74h22.82
			c1.37,0,2.48-0.24,2.48-1.74v-1.08C37.74,23.34,37.07,22.61,36.25,22.61z"/>
		<ellipse class="st0" cx="24.07" cy="5.23" rx="3.55" ry="3.69"/>
	</g>
	<path class="st4" d="M185.46,97.82c1.59,2.43,2.52,5.33,2.52,8.45c0,8.54-6.91,15.47-15.45,15.49c0.15,0,0.31,0.02,0.46,0.02
		c8.4,0,15.22-6.82,15.23-15.22C188.22,103.3,187.19,100.29,185.46,97.82z"/>
	<path class="st2" d="M185.76,107.59c0.93-0.85,0.92-1.26-0.02-2.1c-0.52-0.47-1.05-0.91-1.55-1.39c-0.64-0.61-0.85-1.38-0.69-2.24
		c0.15-0.8,0.35-1.59,0.48-2.4c0.13-0.76-0.09-1.06-0.86-1.19c-0.66-0.11-1.33-0.16-2-0.22c-1.17-0.09-2.03-0.62-2.51-1.72
		c-0.22-0.51-0.44-1.03-0.67-1.54c-0.54-1.23-0.9-1.35-2.06-0.67c-0.52,0.3-1.02,0.62-1.55,0.91c-0.89,0.49-1.79,0.51-2.68,0.01
		c-0.33-0.18-0.65-0.39-0.98-0.57c-0.42-0.24-0.84-0.49-1.29-0.68c-0.44-0.19-0.71-0.09-0.98,0.3c-0.16,0.23-0.29,0.48-0.4,0.73
		c-0.29,0.62-0.54,1.25-0.84,1.86c-0.37,0.74-1,1.16-1.81,1.28c-0.7,0.1-1.4,0.16-2.11,0.23c-1.17,0.11-1.44,0.47-1.21,1.63
		c0.17,0.83,0.35,1.67,0.52,2.5c-0.02,0.72-0.32,1.3-0.81,1.78c-0.47,0.46-0.98,0.88-1.47,1.32c-1.04,0.93-1.04,1.32,0,2.26
		c0.48,0.43,0.98,0.84,1.44,1.29c0.63,0.61,0.88,1.36,0.72,2.23c-0.15,0.8-0.34,1.6-0.48,2.4c-0.13,0.8,0.08,1.09,0.87,1.22
		c0.67,0.11,1.36,0.16,2.03,0.22c1.14,0.1,1.98,0.62,2.45,1.69c0.23,0.54,0.46,1.07,0.7,1.61c0.53,1.18,0.89,1.3,2.01,0.65
		c0.6-0.35,1.2-0.71,1.81-1.03c0.71-0.37,1.46-0.38,2.18-0.03c0.44,0.21,0.85,0.47,1.28,0.71c0.37,0.21,0.73,0.44,1.12,0.62
		c0.56,0.25,0.88,0.14,1.2-0.39c0.16-0.26,0.28-0.54,0.41-0.82c0.24-0.53,0.46-1.07,0.72-1.6c0.38-0.78,1.02-1.23,1.88-1.35
		c0.82-0.11,1.65-0.17,2.47-0.3c0.75-0.12,0.95-0.37,0.85-1.12c-0.08-0.66-0.24-1.32-0.4-1.97c-0.31-1.23-0.02-2.26,0.97-3.08
		C184.96,108.3,185.37,107.95,185.76,107.59z M172.99,112.4c-3.24,0-5.86-2.63-5.86-5.87c0-3.24,2.64-5.86,5.88-5.85
		c3.23,0.01,5.85,2.64,5.84,5.89C178.84,109.79,176.21,112.4,172.99,112.4z"/>
	<path class="st2" d="M173.01,90.14c-9.05-0.02-16.42,7.34-16.42,16.4c-0.01,9.04,7.33,16.39,16.38,16.41
		c9.05,0.02,16.42-7.34,16.43-16.4C189.39,97.5,182.06,90.16,173.01,90.14z M172.99,121.78c-0.16,0-0.31-0.02-0.46-0.02
		c-0.01,0-0.03,0-0.04,0c-8.56,0-15.49-6.94-15.49-15.49s6.94-15.49,15.49-15.49c5.44,0,10.21,2.81,12.97,7.04
		c1.74,2.48,2.76,5.49,2.76,8.74C188.21,114.96,181.39,121.78,172.99,121.78z"/>
	<path class="st2" d="M157.76,106.55c0-8.42,6.84-15.26,15.25-15.24c5.15,0.01,9.7,2.59,12.45,6.51c-2.76-4.24-7.54-7.04-12.97-7.04
		c-8.56,0-15.49,6.94-15.49,15.49s6.94,15.49,15.49,15.49c0.01,0,0.03,0,0.04,0C164.34,121.5,157.76,114.8,157.76,106.55z"/>
	<path class="st2" d="M185.14,113.45c-0.01-0.07-0.02-0.15-0.03-0.22c-0.14-0.68-0.29-1.36-0.44-2.04c-0.13-0.58,0-1.09,0.47-1.49
		c0.36-0.31,0.73-0.61,1.07-0.94c0.35-0.34,0.72-0.67,1.01-1.05c0.58-0.77,0.57-1.58-0.02-2.36c-0.22-0.29-0.48-0.55-0.75-0.8
		c-0.43-0.4-0.88-0.77-1.32-1.16c-0.44-0.39-0.59-0.88-0.46-1.46c0.15-0.65,0.33-1.3,0.42-1.96c0.07-0.47,0.1-0.99,0-1.45
		c-0.2-0.93-0.95-1.28-1.8-1.42c-0.7-0.11-1.4-0.17-2.11-0.22c-0.71-0.06-1.23-0.36-1.5-1.04c-0.15-0.37-0.3-0.74-0.48-1.1
		c-0.24-0.48-0.45-0.98-0.76-1.41c-0.51-0.73-1.24-0.96-2.09-0.69c-0.33,0.11-0.66,0.26-0.96,0.43c-0.41,0.22-0.81,0.45-1.19,0.71
		c-0.82,0.57-1.62,0.56-2.43-0.02c-0.35-0.25-0.72-0.46-1.09-0.67c-1.72-1.02-2.88-0.65-3.69,1.18c-0.22,0.49-0.44,0.98-0.63,1.48
		c-0.29,0.75-0.83,1.09-1.62,1.15c-0.79,0.06-1.58,0.13-2.35,0.29c-1.07,0.22-1.58,0.93-1.56,2.03c0,0.24,0.03,0.49,0.07,0.73
		c0.13,0.66,0.28,1.31,0.42,1.97c0.12,0.57,0,1.06-0.45,1.46c-0.25,0.22-0.5,0.43-0.74,0.66c-0.46,0.45-0.97,0.86-1.37,1.37
		c-0.59,0.75-0.57,1.56,0,2.33c0.27,0.36,0.6,0.67,0.93,0.98c0.38,0.36,0.79,0.69,1.17,1.05c0.4,0.37,0.55,0.82,0.43,1.36
		c-0.18,0.85-0.37,1.69-0.49,2.55c-0.16,1.14,0.4,1.94,1.51,2.26c0.14,0.04,0.28,0.07,0.43,0.09c0.81,0.1,1.62,0.18,2.43,0.28
		c0.44,0.05,0.77,0.3,0.97,0.7c0.17,0.34,0.32,0.69,0.48,1.02c0.29,0.58,0.53,1.18,0.88,1.72c0.52,0.79,1.29,1.02,2.18,0.71
		c0.35-0.12,0.69-0.3,1.02-0.48c0.5-0.28,0.99-0.58,1.49-0.86c0.53-0.31,1.07-0.3,1.6,0.01c0.54,0.32,1.05,0.67,1.61,0.95
		c0.48,0.24,1,0.41,1.5,0.61c0.01-0.03,0.03-0.07,0.04-0.1c0.5,0.01,0.97-0.14,1.27-0.54c0.36-0.47,0.65-0.99,0.92-1.52
		c0.25-0.48,0.44-1,0.67-1.5c0.2-0.41,0.53-0.67,0.99-0.72c0.67-0.08,1.33-0.16,2-0.21C184.55,115.91,185.3,115.08,185.14,113.45z
		 M183.57,111.73c0.16,0.65,0.32,1.31,0.4,1.97c0.1,0.76-0.1,1.01-0.85,1.12c-0.82,0.13-1.65,0.18-2.47,0.3
		c-0.86,0.12-1.5,0.57-1.88,1.35c-0.26,0.52-0.48,1.07-0.72,1.6c-0.13,0.28-0.25,0.56-0.41,0.82c-0.32,0.53-0.64,0.64-1.2,0.39
		c-0.39-0.17-0.75-0.41-1.12-0.62c-0.42-0.24-0.84-0.5-1.28-0.71c-0.73-0.36-1.47-0.34-2.18,0.03c-0.62,0.32-1.21,0.68-1.81,1.03
		c-1.12,0.65-1.48,0.53-2.01-0.65c-0.24-0.53-0.47-1.07-0.7-1.61c-0.47-1.07-1.31-1.59-2.45-1.69c-0.68-0.06-1.36-0.11-2.03-0.22
		c-0.79-0.13-1-0.42-0.87-1.22c0.13-0.8,0.32-1.6,0.48-2.4c0.16-0.87-0.09-1.62-0.72-2.23c-0.46-0.45-0.96-0.86-1.44-1.29
		c-1.04-0.93-1.04-1.32,0-2.26c0.49-0.44,1-0.86,1.47-1.32c0.49-0.48,0.79-1.05,0.81-1.78c-0.17-0.83-0.35-1.67-0.52-2.5
		c-0.24-1.15,0.04-1.51,1.21-1.63c0.7-0.07,1.41-0.13,2.11-0.23c0.81-0.12,1.44-0.55,1.81-1.28c0.3-0.61,0.56-1.24,0.84-1.86
		c0.12-0.25,0.25-0.51,0.4-0.73c0.27-0.39,0.54-0.49,0.98-0.3c0.45,0.19,0.86,0.45,1.29,0.68c0.33,0.18,0.65,0.39,0.98,0.57
		c0.9,0.5,1.8,0.48,2.68-0.01c0.52-0.29,1.03-0.6,1.55-0.91c1.15-0.67,1.51-0.56,2.06,0.67c0.23,0.51,0.45,1.03,0.67,1.54
		c0.47,1.1,1.34,1.63,2.51,1.72c0.67,0.05,1.34,0.11,2,0.22c0.78,0.13,0.99,0.42,0.86,1.19c-0.14,0.8-0.33,1.6-0.48,2.4
		c-0.16,0.86,0.05,1.63,0.69,2.24c0.5,0.48,1.04,0.93,1.55,1.39c0.94,0.84,0.94,1.25,0.02,2.1c-0.4,0.36-0.8,0.71-1.22,1.05
		C183.55,109.46,183.26,110.49,183.57,111.73z"/>
	<path class="st6" d="M91.85,179.02c0.16,1.31,0.61,2.35,1.21,3.28c0.23,0.35,0.48,0.42,0.71,0.17c0.29-0.3,0.21-0.57,0.04-0.83
		c-0.52-0.81-0.93-1.69-1.05-2.75c-0.18-1.58,0.48-2.95,1.87-3.72c0.57-0.32,1.19-0.49,1.83-0.75c0.05,2.24,0.95,3.79,2.21,5.06
		c1.14,1.15,2.5,1.92,4.02,2.38c0.28,0.09,0.56,0.1,0.72-0.3c0.17-0.41-0.05-0.57-0.33-0.65c-1.44-0.44-2.72-1.16-3.79-2.25
		c-0.7-0.71-1.28-1.54-1.64-2.56c-0.88-2.49,0.34-4.91,2.86-5.66c1.68-0.5,3.36-0.81,5.02-0.82c1,0,1.81-0.51,2.49-1.43
		c0.07-0.1,0.15-0.2,0.22-0.3c0.51-0.64,1.29-0.56,1.43,0.19c0.51,2.72,0.83,5.5,0.73,8.41c-0.09,2.87-1.77,4.09-3.55,4.54
		c-0.13,0.03-0.27,0.07-0.4,0.09c-0.3,0.05-0.51,0.23-0.52,0.57c-0.01,0.38,0.24,0.5,0.53,0.4c0.77-0.27,1.54-0.58,2.31-0.88
		c0.11-0.04,0.22-0.13,0.36-0.22c0.44,0.97,0.74,1.98,0.46,3.19c-0.25,1.07-0.89,1.81-1.76,2.32c-1.27,0.74-2.55,0.87-3.83,0.81
		c-2.8-0.14-5.24-1.18-7.44-2.78c-0.03-0.02-0.06-0.05-0.09-0.07c-0.22-0.17-0.47-0.17-0.67,0.12c-0.21,0.3-0.15,0.56,0.09,0.72
		c0.88,0.55,1.73,1.16,2.65,1.62c1.61,0.81,3.35,1.31,5.22,1.39c1.45,0.06,2.9-0.11,4.43-0.96c0.11,0.64,0.28,1.23,0.32,1.85
		c0.06,0.97-0.34,1.81-1.1,2.49c-0.16,0.14-0.31,0.34-0.42,0.53c-1,1.94-2.01,3.87-2.98,5.83c-0.52,1.05-1.26,1.74-2.21,2.09
		c-0.59,0.21-1.2,0.39-1.79,0.44c-1.03,0.09-1.96,0.53-2.86,1.21c-1.44,1.1-2.6,2.52-3.64,4.08c-0.55,0.82-0.44,0.46-0.92,1.32
		c-0.4,0.73-0.93,1.14-1.6,1.31c-0.93,0.24-1.8,0.11-2.62-0.17c-1.25-0.43-2.38-1.08-3.18-2.22c-0.24-0.35-0.43-0.77-0.57-1.2
		c-0.17-0.53-0.04-1.09,0.23-1.66c1-2.06,1.16-2.97,1.55-5.18c0.2-1.16,0.28-2.3,0.02-3.36c-0.1-0.41-0.29-0.77-0.44-1.15
		c-0.29-0.74-0.64-1.45-0.84-2.23c-0.22-0.83-0.05-1.72,0.41-2.59c1.03-1.98,2.04-3.96,3.05-5.95c0.08-0.16,0.16-0.35,0.17-0.52
		c0.08-1.24,0.68-2.11,1.7-2.65C90.91,179.38,91.36,179.23,91.85,179.02z M105.34,193.25c-0.66,0.05-1.28,0.11-1.89,0.12
		c-0.28,0-0.43,0.09-0.58,0.4c-0.46,0.94-0.95,1.88-1.43,2.81c-0.26,0.5-0.68,0.67-1.03,0.46c-0.32-0.2-0.38-0.6-0.13-1.08
		c0.44-0.88,0.9-1.76,1.37-2.68c-0.51-0.1-0.98-0.18-1.47-0.28c-0.25,0.49-0.48,0.95-0.72,1.41c-0.28,0.55-0.68,0.78-1.04,0.61
		c-0.38-0.17-0.44-0.64-0.15-1.22c0.19-0.39,0.39-0.77,0.59-1.15c-4.16-1.54-7.83-3.71-10.14-7.91c-0.73,1.42-1.41,2.83-2.17,4.21
		c-0.49,0.89-0.59,1.74-0.25,2.5c0.52,1.15,1.04,2.32,1.74,3.3c0.59,0.83,1.43,1.43,2.16,2.12c0.21,0.2,0.34,0.42,0.12,0.75
		c-0.21,0.32-0.45,0.29-0.67,0.13c-0.2-0.15-0.41-0.3-0.6-0.47c-0.46-0.42-0.91-0.84-1.39-1.29c-0.12,3.07-0.49,4.75-1.84,7.56
		c-0.24,0.49-0.25,0.88-0.04,1.26c0.12,0.22,0.25,0.44,0.41,0.63c0.74,0.91,1.69,1.49,2.79,1.77c0.61,0.15,1.27,0.14,1.92,0.14
		c0.36,0,0.66-0.25,0.86-0.68c0.2-0.42,0.45-0.83,0.69-1.23c1.23-2.02,1.97-2.7,3.72-4.2c1.23-1.06,2.54-1.76,4.01-1.86
		c0.52-0.04,1.06-0.23,1.59-0.42c0.57-0.22,1.02-0.65,1.33-1.3c0.36-0.75,0.75-1.48,1.13-2.22
		C104.59,194.72,104.96,194,105.34,193.25z M107.62,172.09c-0.01,0.23-0.06,0.42-0.02,0.55c0.31,1.02,0.34,2.12,0.2,3.26
		c-0.03,0.28,0.03,0.48,0.29,0.49c0.26,0,0.38-0.2,0.44-0.48c0.25-1.12,0.36-2.23,0.23-3.31c-0.02-0.19-0.02-0.41-0.11-0.53
		c-0.11-0.15-0.3-0.29-0.48-0.29C107.99,171.78,107.8,171.97,107.62,172.09z M107.42,177.6c-0.16,0.31-0.1,0.65,0.14,0.8
		c0.25,0.15,0.59,0.01,0.76-0.31c0.17-0.32,0.1-0.68-0.17-0.81C107.9,177.15,107.58,177.29,107.42,177.6z"/>
</g>
</svg>
